<svg version="1.2" xmlns="http://www.w3.org/2000/svg" viewBox="0 0 258 255" width="258" height="255">
	<title>python-5-logo-svg-vector</title>
	<defs>
		<linearGradient id="g1" x2="1" gradientUnits="userSpaceOnUse" gradientTransform="matrix(126.28,125.578,-200.281,201.401,25.687,22.923)">
			<stop offset="0" stop-color="#387eb8"/>
			<stop offset="1" stop-color="#366994"/>
		</linearGradient>
		<linearGradient id="g2" x2="1" gradientUnits="userSpaceOnUse" gradientTransform="matrix(135.624,128.782,-205.139,216.038,103.37,103.382)">
			<stop offset="0" stop-color="#ffe052"/>
			<stop offset="1" stop-color="#ffc331"/>
		</linearGradient>
	</defs>
	<style>
		.s0 { fill: url(#g1) } 
		.s1 { fill: url(#g2) } 
	</style>
	<path class="s0" d="m127.9 0.1c-64.8 0-60.8 28.1-60.8 28.1l0.1 29.1h61.9v8.8h-86.5c0 0-41.5-4.7-41.5 60.7 0 65.4 36.3 63.1 36.3 63.1h21.6v-30.4c0 0-1.2-36.2 35.6-36.2h61.4c0 0 34.4 0.6 34.4-33.3v-56c0 0 5.3-33.9-62.5-33.9zm-34.1 19.6c1.5 0 2.9 0.2 4.3 0.8 1.3 0.6 2.5 1.4 3.6 2.4 1 1.1 1.8 2.3 2.4 3.6 0.5 1.4 0.8 2.8 0.8 4.3 0 1.5-0.3 2.9-0.8 4.3-0.6 1.3-1.4 2.5-2.4 3.6-1.1 1-2.3 1.8-3.6 2.4-1.4 0.5-2.8 0.8-4.3 0.8-1.5 0-2.9-0.3-4.3-0.8-1.3-0.6-2.5-1.4-3.6-2.4-1-1.1-1.8-2.3-2.4-3.6-0.5-1.4-0.8-2.8-0.8-4.3 0-1.5 0.3-2.9 0.8-4.3 0.6-1.3 1.4-2.5 2.4-3.6 1.1-1 2.3-1.8 3.6-2.4 1.4-0.6 2.8-0.8 4.3-0.8z"/>
	<path class="s1" d="m129.8 254.1c64.8 0 60.7-28.1 60.7-28.1v-29.1h-61.9v-8.8h86.4c0 0 41.5 4.7 41.5-60.7 0-65.4-36.2-63.1-36.2-63.1h-21.6v30.4c0 0 1.2 36.2-35.6 36.2h-61.4c0 0-34.5-0.6-34.5 33.3v56c0 0-5.2 33.9 62.6 33.9zm34.1-19.6c-1.5 0-2.9-0.2-4.3-0.8-1.3-0.6-2.6-1.4-3.6-2.4-1-1.1-1.9-2.3-2.4-3.6-0.6-1.4-0.9-2.8-0.9-4.3 0-1.5 0.3-2.9 0.9-4.3 0.5-1.3 1.4-2.5 2.4-3.6 1-1 2.3-1.8 3.6-2.4 1.4-0.5 2.8-0.8 4.3-0.8 1.4 0 2.9 0.3 4.2 0.8 1.4 0.6 2.6 1.4 3.6 2.4 1.1 1.1 1.9 2.3 2.5 3.6 0.5 1.4 0.8 2.8 0.8 4.3 0 1.5-0.3 2.9-0.8 4.3-0.6 1.3-1.4 2.5-2.5 3.6-1 1-2.2 1.8-3.6 2.4-1.3 0.6-2.8 0.8-4.2 0.8z"/>
</svg>